<svg width="1000" height="706" viewBox="0 0 1000 706" fill="none" xmlns="http://www.w3.org/2000/svg">
<g clip-path="url(#clip0_604_2)">
<rect x="219" y="6" width="85" height="400" transform="rotate(30 219 6)" fill="#45B59B"/>
<rect x="19" y="353" width="85" height="400" transform="rotate(-30 19 353)" fill="#45B59B"/>
<rect width="85" height="400" transform="matrix(-0.866025 0.5 0.5 0.866025 781.612 6)" fill="#45B59B"/>
<rect width="85" height="400" transform="matrix(-0.866025 -0.5 -0.5 0.866025 981.612 353.5)" fill="#45B59B"/>
<path d="M371.403 199.712C375.52 185.357 380.886 170.875 387.502 156.267C394.567 141.786 403.041 129.166 412.923 118.407C423.253 107.776 435.183 100.031 448.714 95.1719C462.372 89.8645 478.398 89.8477 496.79 95.1216L590.993 122.134C605.797 126.379 617.906 133.249 627.319 142.745C637.311 151.921 644.544 162.249 649.02 173.727C653.945 185.334 656.69 197.772 657.254 211.042C658.267 224.44 657.485 237.324 654.909 249.693C652.782 262.191 648.989 273.726 643.53 284.297C638.52 294.997 632.55 303.966 625.62 311.203L510.704 427.534L493.338 488.093L415.957 465.905L435.637 397.27L542.658 293.239C548.625 287.668 553.825 279.692 558.257 269.312C563.139 259.061 566.097 248.743 567.133 238.36C568.746 227.656 567.89 217.944 564.565 209.223C561.688 200.631 555.54 194.984 546.12 192.283L502.382 179.741C494.756 177.554 488.09 177.099 482.384 178.376C476.806 179.204 471.74 181.635 467.185 185.669C463.207 189.383 459.805 194.476 456.978 200.947C454.28 206.97 451.773 214.019 449.458 222.094L371.403 199.712ZM459.855 612.483L380.455 589.715L403.029 510.988L482.43 533.755L459.855 612.483Z" fill="#45B59B"/>
</g>
<defs>
<clipPath id="clip0_604_2">
<rect width="1000" height="706" fill="white"/>
</clipPath>
</defs>
</svg>
